<svg xmlns="http://www.w3.org/2000/svg" viewBox="0 0 1160 400.85"><defs></defs><title>Asset 1</title><g id="Layer_2" data-name="Layer 2"><g id="Layer_1-2" data-name="Layer 1"><path class="cls-1" d="M69,111.59v48.69h9.07q22.53,0,30.37-5.68t7.84-16.53q0-12.27-9.2-19.37t-30.56-7.1Zm0-72.32v40h7.91q13.22,0,19.64-5.55T103,58.63q0-8.91-6.1-14.14T78.36,39.26ZM32.86,194.76V4.78H62.73q26,0,38,3.36,17.07,4.52,27.16,16.79A44.16,44.16,0,0,1,138,53.86a42.18,42.18,0,0,1-4.58,19.7q-4.59,8.85-14.92,16.6,17.31,8.14,25.31,20.34t8,28.87a53.77,53.77,0,0,1-8.27,29.19,52.83,52.83,0,0,1-21.33,19.7q-13.06,6.52-36.07,6.52Z"></path><path class="cls-1" d="M235.38,83.17q-16.35,0-27.16,11.56T197.4,124.37q0,18.21,11,30a35.66,35.66,0,0,0,27.1,11.75q16.6,0,27.54-11.56T274,124.24q0-18.34-10.94-29.7T235.38,83.17m37.06-28.93H307.7V194.76H272.44V179.91q-10.32,9.82-20.71,14.14a58,58,0,0,1-22.51,4.33q-27.22,0-47.09-21.11t-19.86-52.5q0-32.55,19.22-53.34t46.7-20.79a59.39,59.39,0,0,1,23.73,4.78,64.8,64.8,0,0,1,20.51,14.34Z"></path><polygon class="cls-1" points="323.28 0 323.28 194.76 358.54 194.76 358.54 130 418.2 194.76 461.97 194.76 394.2 121.59 454.73 54.24 410.46 54.24 358.54 112.17 358.54 0 323.28 0"></polygon><path class="cls-1" d="M551.89,106.94a35.37,35.37,0,0,0-13.78-19.11,40,40,0,0,0-23.87-7.36,42.21,42.21,0,0,0-25.87,8.26q-7,5.17-12.94,18.21Zm35.26,27.77H473.88q2.45,15,13.11,23.83t27.19,8.85a47,47,0,0,0,34-13.82l29.7,13.95q-11.11,15.76-26.6,23.31t-36.81,7.56q-33.06,0-53.86-20.86t-20.79-52.24q0-32.16,20.73-53.4t52-21.25q33.19,0,54,21.25T587.28,128Z"></path><path class="cls-1" d="M600.49,54.24h30.22V71.94q4.91-10.46,13-15.88a31.47,31.47,0,0,1,17.82-5.43,33,33,0,0,1,14.34,3.62l-11,30.35q-6.2-3.1-10.2-3.1-8.14,0-13.75,10.07t-5.62,39.52l.13,6.85v56.83h-35Z"></path><polygon class="cls-2" points="156.61 207.25 112.17 339.76 68.13 207.25 32.89 207.25 0 397.23 35.26 397.23 56.12 277.25 96.12 397.23 127.99 397.23 168.35 277.25 188.72 397.23 223.69 397.23 191.82 207.25 156.61 207.25"></polygon><path class="cls-2" d="M368.32,285.13,339,301.27q-8.28-8.65-16.36-12a49.14,49.14,0,0,0-18.94-3.36q-19.78,0-32,11.8t-12.22,30.24q0,17.93,11.77,29.27t30.9,11.35q23.66,0,36.85-16.14l27.8,19q-22.6,29.4-63.8,29.4-37.07,0-58.05-22t-21-51.4a72.36,72.36,0,0,1,38.68-64.57q18.28-9.81,40.88-9.82,20.92,0,37.58,8.33a71.35,71.35,0,0,1,27.25,23.7"></path><polygon class="cls-2" points="381.1 207.25 417.65 207.25 417.65 272.74 469.23 207.25 512.64 207.25 446.31 292.04 519.1 397.23 476.22 397.23 417.65 312.82 417.65 397.23 381.1 397.23 381.1 207.25"></polygon><path class="cls-2" d="M614.46,309.41a35.38,35.38,0,0,0-13.78-19.11,40,40,0,0,0-23.87-7.36,42.21,42.21,0,0,0-25.87,8.26q-7,5.17-12.94,18.21Zm35.26,27.77H536.45q2.45,15,13.11,23.83t27.19,8.85a47,47,0,0,0,34-13.82L640.42,370q-11.11,15.76-26.6,23.31T577,400.84q-33.06,0-53.86-20.86t-20.79-52.24q0-32.16,20.73-53.4t52-21.25q33.19,0,54,21.25t20.79,56.12Z"></path><path class="cls-2" d="M662,256.71h35.26v14.4q12-10.11,21.73-14.06a52.5,52.5,0,0,1,19.93-4,48.23,48.23,0,0,1,35.46,14.59q12.25,12.4,12.25,36.68v92.86H751.74V335.69q0-25.15-2.26-33.41t-7.86-12.58a22,22,0,0,0-13.85-4.32,26,26,0,0,0-18.36,7.16q-7.67,7.16-10.63,19.8-1.55,6.58-1.54,28.51v56.37H662Z"></path><polygon class="cls-2" points="806.17 256.71 913.75 256.71 850.62 367.39 910.13 367.39 910.13 397.23 796.48 397.23 859.9 286.55 806.17 286.55 806.17 256.71"></polygon><path class="cls-2" d="M1082.89,309.41a35.37,35.37,0,0,0-13.78-19.11,39.94,39.94,0,0,0-23.87-7.36,42.21,42.21,0,0,0-25.87,8.26q-7,5.17-12.94,18.21Zm35.26,27.77H1004.89q2.45,15,13.11,23.83t27.19,8.85a47,47,0,0,0,34-13.82l29.7,13.95q-11.11,15.76-26.6,23.31t-36.81,7.56q-33.06,0-53.86-20.86t-20.79-52.24q0-32.16,20.73-53.4t52-21.25q33.19,0,54,21.25t20.79,56.12Z"></path><rect class="cls-2" x="923.78" y="256.71" width="35.26" height="140.52"></rect><rect class="cls-2" x="923.77" y="218.38" width="35.22" height="26.64"></rect><rect class="cls-2" x="1126.78" y="370.45" width="33.22" height="26.64"></rect></g></g></svg>